<svg width="32" height="32" viewBox="0 0 32 32" fill="none" xmlns="http://www.w3.org/2000/svg">
    <path d="M16 5.33398L15.6464 4.98043L16 4.62688L16.3536 4.98043L16 5.33398ZM16.5 25.334C16.5 25.6101 16.2761 25.834 16 25.834C15.7239 25.834 15.5 25.6101 15.5 25.334L16 25.334L16.5 25.334ZM8 13.334L7.64645 12.9804L15.6464 4.98043L16 5.33398L16.3536 5.68754L8.35355 13.6875L8 13.334ZM16 5.33398L16.3536 4.98043L24.3536 12.9804L24 13.334L23.6464 13.6875L15.6464 5.68754L16 5.33398ZM16 5.33398L16.5 5.33398L16.5 25.334L16 25.334L15.5 25.334L15.5 5.33398L16 5.33398Z" fill="#FCFCFC"/>
</svg>
