<svg width="131" height="39" viewBox="0 0 131 39" fill="none" xmlns="http://www.w3.org/2000/svg">
    <path d="M0.739746 12.137C0.739746 24.458 0.776746 24.865 1.88675 26.937C2.21975 27.566 2.86725 28.4725 3.32975 28.972C4.68025 30.3965 12.1543 36.0945 13.5973 36.7975C14.8738 37.408 17.1863 38 18.3148 38C20.1278 38 23.1988 36.964 24.4938 35.9095L25.0303 35.4655L24.1238 35.04C23.6243 34.7995 22.3848 33.967 21.3673 33.19C16.5388 29.527 10.2303 24.5875 9.93425 24.236C9.15725 23.3295 9.15725 23.2925 9.06475 12.0075L8.97225 1.0925L4.86525 1.037L0.739746 1V12.137Z" fill="#488426"/>
    <path d="M14.4671 11.767L14.5226 22.5525L15.0036 23.385C15.5586 24.31 15.4476 24.2175 20.5906 28.1765C22.5886 29.7305 24.6236 31.155 25.0676 31.3585C26.8621 32.154 28.8416 31.9875 31.2281 30.859C32.8561 30.082 34.2621 28.7315 35.0946 27.159C36.2601 24.9575 36.2601 25.0315 36.2601 12.433V1L32.1531 1.037L28.0276 1.0925L27.9351 11.36C27.8426 20.7765 27.8241 21.683 27.5096 22.1455C26.5661 23.5885 24.1241 23.5885 23.1806 22.1455C22.8661 21.683 22.8476 20.7765 22.7551 11.36L22.6626 1.0925L18.5371 1.037L14.4116 1L14.4671 11.767Z" fill="#383838"/>
    <path d="M47.1401 16.0001V15.5201L48.9201 15.1201V1.63006L47.1401 1.25006V0.770058H52.9201V1.25006L51.1701 1.63006V15.1201L52.9201 15.5201V16.0001H47.1401ZM67.8792 16.3701L58.1192 2.95006V15.1201L59.8892 15.5201V16.0001H55.4792V15.5201L57.2592 15.1201V1.63006L55.4792 1.25006V0.770058H59.6592L67.7292 11.7301V1.63006L65.9692 1.25006V0.770058H70.3792V1.25006L68.5892 1.63006V16.3701H67.8792ZM78.9731 16.2101L73.7431 2.46006C73.6364 2.16006 73.5131 1.93006 73.3731 1.77006C73.2397 1.60339 73.0464 1.48339 72.7931 1.41006C72.5397 1.33673 72.1831 1.28339 71.7231 1.25006V0.770058H78.3731V1.25006C77.6664 1.29006 77.1564 1.34339 76.8431 1.41006C76.5364 1.47006 76.3664 1.58339 76.3331 1.75006C76.3064 1.91006 76.3531 2.16673 76.4731 2.52006L79.8331 12.1901L79.9531 12.1801L83.0231 3.41006C83.1964 2.93006 83.2597 2.55006 83.2131 2.27006C83.1664 1.99006 82.9797 1.77339 82.6531 1.62006C82.3331 1.46673 81.8431 1.34339 81.1831 1.25006V0.770058H86.8231V1.25006C86.1364 1.35006 85.6164 1.48006 85.2631 1.64006C84.9164 1.80006 84.6564 2.02339 84.4831 2.31006C84.3097 2.59006 84.1397 2.97006 83.9731 3.45006L79.3831 16.2101H78.9731ZM88.0767 16.0001V15.5201L89.7767 15.1201V1.63006L88.0767 1.25006V0.770058H99.2367L99.5867 5.12006H99.0567C98.8967 4.56006 98.7 3.97339 98.4667 3.36006C98.24 2.74006 97.96 2.15006 97.6267 1.59006H92.0267V15.1701H97.5267C97.92 14.5301 98.24 13.8968 98.4867 13.2701C98.74 12.6434 98.98 12.0101 99.2067 11.3701H99.9067L99.1567 16.0001H88.0767ZM96.1767 10.7401C96.11 10.3401 96.0167 9.94339 95.8967 9.55006C95.7767 9.15673 95.62 8.76673 95.4267 8.38006H91.7467V7.55006H95.4267C95.62 7.15673 95.7733 6.76339 95.8867 6.37006C96.0067 5.97006 96.1033 5.57673 96.1767 5.19006H96.6967V10.7401H96.1767ZM107.746 16.1801C107.199 16.1801 106.666 16.1001 106.146 15.9401C105.632 15.7801 105.089 15.5301 104.516 15.1901L103.726 16.0001H103.316L102.946 10.9301L103.486 10.8201C103.886 12.3868 104.412 13.5234 105.066 14.2301C105.726 14.9368 106.596 15.2901 107.676 15.2901C108.582 15.2901 109.299 15.0734 109.826 14.6401C110.352 14.2001 110.616 13.6068 110.616 12.8601C110.616 12.2734 110.432 11.7501 110.066 11.2901C109.706 10.8234 109.112 10.3568 108.286 9.89006L106.756 9.08006C105.509 8.40673 104.616 7.73673 104.076 7.07006C103.536 6.40339 103.266 5.62673 103.266 4.74006C103.266 3.94006 103.462 3.22673 103.856 2.60006C104.249 1.96673 104.786 1.47006 105.466 1.11006C106.152 0.743392 106.922 0.560059 107.776 0.560059C108.942 0.560059 109.959 0.970058 110.826 1.79006L111.436 0.750058H111.866L112.046 5.12006H111.476C111.162 3.87339 110.709 2.95339 110.116 2.36006C109.529 1.76006 108.779 1.46006 107.866 1.46006C107.126 1.46006 106.539 1.65673 106.106 2.05006C105.679 2.44339 105.466 2.98339 105.466 3.67006C105.466 4.29006 105.669 4.84339 106.076 5.33006C106.489 5.81673 107.182 6.31673 108.156 6.83006L109.646 7.63006C110.666 8.17006 111.402 8.77006 111.856 9.43006C112.316 10.0901 112.546 10.8468 112.546 11.7001C112.546 12.5468 112.332 13.3101 111.906 13.9901C111.486 14.6634 110.912 15.1968 110.186 15.5901C109.466 15.9834 108.652 16.1801 107.746 16.1801ZM118.688 16.0001V15.5201L120.898 15.1201V1.59006H117.018C116.592 2.15673 116.228 2.75006 115.928 3.37006C115.635 3.99006 115.392 4.58006 115.198 5.14006H114.678L115.408 0.770058H128.568L129.298 5.14006H128.788C128.595 4.58006 128.348 3.99006 128.048 3.37006C127.755 2.75006 127.395 2.15673 126.968 1.59006H123.148V15.1201L125.318 15.5201V16.0001H118.688ZM54.9061 38.2311C53.7548 38.2311 52.7318 38.0514 51.8371 37.6921C50.9498 37.3254 50.2568 36.8194 49.7581 36.1741C49.4648 35.7854 49.2484 35.3308 49.1091 34.8101C48.9698 34.2821 48.9001 33.5634 48.9001 32.6541V22.1931L46.9531 21.7751V21.2471H53.3331V21.7751L51.3861 22.1931V32.9291C51.3861 34.3298 51.7491 35.3894 52.4751 36.1081C53.2011 36.8268 54.1764 37.1861 55.4011 37.1861C56.9924 37.1861 58.1218 36.7351 58.7891 35.8331C59.0898 35.4371 59.3061 34.8834 59.4381 34.1721C59.5701 33.4608 59.6361 32.5184 59.6361 31.3451V22.1931L57.7001 21.7751V21.2471H62.5401V21.7751L60.5821 22.1931V32.3131C60.5821 33.2224 60.5124 33.9924 60.3731 34.6231C60.2338 35.2464 60.0211 35.7781 59.7351 36.2181C59.3024 36.8561 58.6681 37.3511 57.8321 37.7031C56.9961 38.0551 56.0208 38.2311 54.9061 38.2311ZM78.7423 38.4071L68.0062 23.6451V37.0321L69.9533 37.4721V38.0001H65.1022V37.4721L67.0602 37.0321V22.1931L65.1022 21.7751V21.2471H69.7003L78.5773 33.3031V22.1931L76.6413 21.7751V21.2471H81.4923V21.7751L79.5233 22.1931V38.4071H78.7423ZM84.1365 38.0001V37.4721L86.0945 37.0321V22.1931L84.1365 21.7751V21.2471H90.4945V21.7751L88.5695 22.1931V37.0321L90.4945 37.4721V38.0001H84.1365ZM101.246 38.2311C100.087 38.2311 99.0205 38.0148 98.0452 37.5821C97.0772 37.1421 96.2339 36.5334 95.5152 35.7561C94.8039 34.9714 94.2502 34.0584 93.8542 33.0171C93.4655 31.9684 93.2712 30.8354 93.2712 29.6181C93.2712 28.3934 93.4655 27.2604 93.8542 26.2191C94.2502 25.1778 94.8039 24.2684 95.5152 23.4911C96.2339 22.7064 97.0772 22.0978 98.0452 21.6651C99.0205 21.2324 100.087 21.0161 101.246 21.0161C102.405 21.0161 103.472 21.2324 104.447 21.6651C105.422 22.0978 106.266 22.7064 106.977 23.4911C107.696 24.2684 108.253 25.1778 108.649 26.2191C109.045 27.2604 109.243 28.3934 109.243 29.6181C109.243 30.8354 109.045 31.9684 108.649 33.0171C108.253 34.0584 107.696 34.9714 106.977 35.7561C106.266 36.5334 105.422 37.1421 104.447 37.5821C103.472 38.0148 102.405 38.2311 101.246 38.2311ZM101.246 37.1971C101.899 37.1971 102.489 37.0798 103.017 36.8451C103.552 36.6104 104.022 36.2731 104.425 35.8331C104.836 35.3858 105.18 34.8504 105.459 34.2271C105.738 33.6038 105.947 32.8998 106.086 32.1151C106.225 31.3304 106.295 30.4798 106.295 29.5631C106.295 28.6611 106.225 27.8251 106.086 27.0551C105.947 26.2778 105.741 25.5811 105.47 24.9651C105.199 24.3491 104.858 23.8248 104.447 23.3921C104.044 22.9521 103.574 22.6184 103.039 22.3911C102.511 22.1564 101.921 22.0391 101.268 22.0391C100.615 22.0391 100.021 22.1564 99.4862 22.3911C98.9509 22.6184 98.4779 22.9521 98.0672 23.3921C97.6639 23.8321 97.3229 24.3638 97.0442 24.9871C96.7729 25.6031 96.5675 26.2998 96.4282 27.0771C96.2889 27.8544 96.2192 28.6978 96.2192 29.6071C96.2192 30.5164 96.2889 31.3598 96.4282 32.1371C96.5675 32.9144 96.7729 33.6148 97.0442 34.2381C97.3229 34.8614 97.6639 35.3931 98.0672 35.8331C98.4705 36.2731 98.9362 36.6104 99.4642 36.8451C99.9995 37.0798 100.593 37.1971 101.246 37.1971ZM125.64 38.4071L114.904 23.6451V37.0321L116.851 37.4721V38.0001H112V37.4721L113.958 37.0321V22.1931L112 21.7751V21.2471H116.598L125.475 33.3031V22.1931L123.539 21.7751V21.2471H128.39V21.7751L126.421 22.1931V38.4071H125.64Z" fill="#383838"/>
</svg>
