<svg width="131" height="40" viewBox="0 0 131 40" fill="none" xmlns="http://www.w3.org/2000/svg">
    <path d="M0.739746 12.637C0.739746 24.958 0.776746 25.365 1.88675 27.437C2.21975 28.066 2.86725 28.9725 3.32975 29.472C4.68025 30.8965 12.1543 36.5945 13.5973 37.2975C14.8738 37.908 17.1863 38.5 18.3148 38.5C20.1278 38.5 23.1988 37.464 24.4938 36.4095L25.0303 35.9655L24.1238 35.54C23.6243 35.2995 22.3848 34.467 21.3673 33.69C16.5388 30.027 10.2303 25.0875 9.93425 24.736C9.15725 23.8295 9.15725 23.7925 9.06475 12.5075L8.97225 1.5925L4.86525 1.537L0.739746 1.5V12.637Z" fill="#488426"/>
    <path d="M14.4671 12.267L14.5226 23.0525L15.0036 23.885C15.5586 24.81 15.4476 24.7175 20.5906 28.6765C22.5886 30.2305 24.6236 31.655 25.0676 31.8585C26.8621 32.654 28.8416 32.4875 31.2281 31.359C32.8561 30.582 34.2621 29.2315 35.0946 27.659C36.2601 25.4575 36.2601 25.5315 36.2601 12.933V1.5L32.1531 1.537L28.0276 1.5925L27.9351 11.86C27.8426 21.2765 27.8241 22.183 27.5096 22.6455C26.5661 24.0885 24.1241 24.0885 23.1806 22.6455C22.8661 22.183 22.8476 21.2765 22.7551 11.86L22.6626 1.5925L18.5371 1.537L14.4116 1.5L14.4671 12.267Z" fill="#FCFCFC"/>
    <path d="M47.1401 16.5005V16.0205L48.9201 15.6205V2.13055L47.1401 1.75055V1.27055H52.9201V1.75055L51.1701 2.13055V15.6205L52.9201 16.0205V16.5005H47.1401ZM67.8792 16.8705L58.1192 3.45055V15.6205L59.8892 16.0205V16.5005H55.4792V16.0205L57.2592 15.6205V2.13055L55.4792 1.75055V1.27055H59.6592L67.7292 12.2305V2.13055L65.9692 1.75055V1.27055H70.3792V1.75055L68.5892 2.13055V16.8705H67.8792ZM78.9731 16.7105L73.7431 2.96055C73.6364 2.66055 73.5131 2.43055 73.3731 2.27055C73.2397 2.10388 73.0464 1.98388 72.7931 1.91055C72.5397 1.83722 72.1831 1.78388 71.7231 1.75055V1.27055H78.3731V1.75055C77.6664 1.79055 77.1564 1.84388 76.8431 1.91055C76.5364 1.97055 76.3664 2.08388 76.3331 2.25055C76.3064 2.41055 76.3531 2.66722 76.4731 3.02055L79.8331 12.6905L79.9531 12.6805L83.0231 3.91055C83.1964 3.43055 83.2597 3.05055 83.2131 2.77055C83.1664 2.49055 82.9797 2.27388 82.6531 2.12055C82.3331 1.96722 81.8431 1.84388 81.1831 1.75055V1.27055H86.8231V1.75055C86.1364 1.85055 85.6164 1.98055 85.2631 2.14055C84.9164 2.30055 84.6564 2.52388 84.4831 2.81055C84.3097 3.09055 84.1397 3.47055 83.9731 3.95055L79.3831 16.7105H78.9731ZM88.0767 16.5005V16.0205L89.7767 15.6205V2.13055L88.0767 1.75055V1.27055H99.2367L99.5867 5.62055H99.0567C98.8967 5.06055 98.7 4.47388 98.4667 3.86055C98.24 3.24055 97.96 2.65055 97.6267 2.09055H92.0267V15.6705H97.5267C97.92 15.0305 98.24 14.3972 98.4867 13.7705C98.74 13.1438 98.98 12.5105 99.2067 11.8705H99.9067L99.1567 16.5005H88.0767ZM96.1767 11.2405C96.11 10.8405 96.0167 10.4439 95.8967 10.0505C95.7767 9.65722 95.62 9.26722 95.4267 8.88055H91.7467V8.05055H95.4267C95.62 7.65722 95.7733 7.26388 95.8867 6.87055C96.0067 6.47055 96.1033 6.07722 96.1767 5.69055H96.6967V11.2405H96.1767ZM107.746 16.6805C107.199 16.6805 106.666 16.6005 106.146 16.4405C105.632 16.2805 105.089 16.0305 104.516 15.6905L103.726 16.5005H103.316L102.946 11.4305L103.486 11.3205C103.886 12.8872 104.412 14.0238 105.066 14.7305C105.726 15.4372 106.596 15.7905 107.676 15.7905C108.582 15.7905 109.299 15.5738 109.826 15.1405C110.352 14.7005 110.616 14.1072 110.616 13.3605C110.616 12.7738 110.432 12.2505 110.066 11.7905C109.706 11.3238 109.112 10.8572 108.286 10.3905L106.756 9.58055C105.509 8.90722 104.616 8.23722 104.076 7.57055C103.536 6.90388 103.266 6.12722 103.266 5.24055C103.266 4.44055 103.462 3.72722 103.856 3.10055C104.249 2.46722 104.786 1.97055 105.466 1.61055C106.152 1.24388 106.922 1.06055 107.776 1.06055C108.942 1.06055 109.959 1.47055 110.826 2.29055L111.436 1.25055H111.866L112.046 5.62055H111.476C111.162 4.37388 110.709 3.45388 110.116 2.86055C109.529 2.26055 108.779 1.96055 107.866 1.96055C107.126 1.96055 106.539 2.15722 106.106 2.55055C105.679 2.94388 105.466 3.48388 105.466 4.17055C105.466 4.79055 105.669 5.34388 106.076 5.83055C106.489 6.31722 107.182 6.81722 108.156 7.33055L109.646 8.13055C110.666 8.67055 111.402 9.27055 111.856 9.93055C112.316 10.5905 112.546 11.3472 112.546 12.2005C112.546 13.0472 112.332 13.8105 111.906 14.4905C111.486 15.1638 110.912 15.6972 110.186 16.0905C109.466 16.4838 108.652 16.6805 107.746 16.6805ZM118.688 16.5005V16.0205L120.898 15.6205V2.09055H117.018C116.592 2.65722 116.228 3.25055 115.928 3.87055C115.635 4.49055 115.392 5.08055 115.198 5.64055H114.678L115.408 1.27055H128.568L129.298 5.64055H128.788C128.595 5.08055 128.348 4.49055 128.048 3.87055C127.755 3.25055 127.395 2.65722 126.968 2.09055H123.148V15.6205L125.318 16.0205V16.5005H118.688ZM54.9061 38.7315C53.7548 38.7315 52.7318 38.5518 51.8371 38.1925C50.9498 37.8258 50.2568 37.3198 49.7581 36.6745C49.4648 36.2858 49.2484 35.8312 49.1091 35.3105C48.9698 34.7825 48.9001 34.0638 48.9001 33.1545V22.6935L46.9531 22.2755V21.7475H53.3331V22.2755L51.3861 22.6935V33.4295C51.3861 34.8302 51.7491 35.8898 52.4751 36.6085C53.2011 37.3272 54.1764 37.6865 55.4011 37.6865C56.9924 37.6865 58.1218 37.2355 58.7891 36.3335C59.0898 35.9375 59.3061 35.3838 59.4381 34.6725C59.5701 33.9612 59.6361 33.0188 59.6361 31.8455V22.6935L57.7001 22.2755V21.7475H62.5401V22.2755L60.5821 22.6935V32.8135C60.5821 33.7228 60.5124 34.4928 60.3731 35.1235C60.2338 35.7468 60.0211 36.2785 59.7351 36.7185C59.3024 37.3565 58.6681 37.8515 57.8321 38.2035C56.9961 38.5555 56.0208 38.7315 54.9061 38.7315ZM78.7423 38.9075L68.0062 24.1455V37.5325L69.9533 37.9725V38.5005H65.1022V37.9725L67.0602 37.5325V22.6935L65.1022 22.2755V21.7475H69.7003L78.5773 33.8035V22.6935L76.6413 22.2755V21.7475H81.4923V22.2755L79.5233 22.6935V38.9075H78.7423ZM84.1365 38.5005V37.9725L86.0945 37.5325V22.6935L84.1365 22.2755V21.7475H90.4945V22.2755L88.5695 22.6935V37.5325L90.4945 37.9725V38.5005H84.1365ZM101.246 38.7315C100.087 38.7315 99.0205 38.5152 98.0452 38.0825C97.0772 37.6425 96.2339 37.0338 95.5152 36.2565C94.8039 35.4718 94.2502 34.5588 93.8542 33.5175C93.4655 32.4688 93.2712 31.3358 93.2712 30.1185C93.2712 28.8938 93.4655 27.7608 93.8542 26.7195C94.2502 25.6782 94.8039 24.7688 95.5152 23.9915C96.2339 23.2068 97.0772 22.5982 98.0452 22.1655C99.0205 21.7328 100.087 21.5165 101.246 21.5165C102.405 21.5165 103.472 21.7328 104.447 22.1655C105.422 22.5982 106.266 23.2068 106.977 23.9915C107.696 24.7688 108.253 25.6782 108.649 26.7195C109.045 27.7608 109.243 28.8938 109.243 30.1185C109.243 31.3358 109.045 32.4688 108.649 33.5175C108.253 34.5588 107.696 35.4718 106.977 36.2565C106.266 37.0338 105.422 37.6425 104.447 38.0825C103.472 38.5152 102.405 38.7315 101.246 38.7315ZM101.246 37.6975C101.899 37.6975 102.489 37.5802 103.017 37.3455C103.552 37.1108 104.022 36.7735 104.425 36.3335C104.836 35.8862 105.18 35.3508 105.459 34.7275C105.738 34.1042 105.947 33.4002 106.086 32.6155C106.225 31.8308 106.295 30.9802 106.295 30.0635C106.295 29.1615 106.225 28.3255 106.086 27.5555C105.947 26.7782 105.741 26.0815 105.47 25.4655C105.199 24.8495 104.858 24.3252 104.447 23.8925C104.044 23.4525 103.574 23.1188 103.039 22.8915C102.511 22.6568 101.921 22.5395 101.268 22.5395C100.615 22.5395 100.021 22.6568 99.4862 22.8915C98.9509 23.1188 98.4779 23.4525 98.0672 23.8925C97.6639 24.3325 97.3229 24.8642 97.0442 25.4875C96.7729 26.1035 96.5675 26.8002 96.4282 27.5775C96.2889 28.3548 96.2192 29.1982 96.2192 30.1075C96.2192 31.0168 96.2889 31.8602 96.4282 32.6375C96.5675 33.4148 96.7729 34.1152 97.0442 34.7385C97.3229 35.3618 97.6639 35.8935 98.0672 36.3335C98.4705 36.7735 98.9362 37.1108 99.4642 37.3455C99.9995 37.5802 100.593 37.6975 101.246 37.6975ZM125.64 38.9075L114.904 24.1455V37.5325L116.851 37.9725V38.5005H112V37.9725L113.958 37.5325V22.6935L112 22.2755V21.7475H116.598L125.475 33.8035V22.6935L123.539 22.2755V21.7475H128.39V22.2755L126.421 22.6935V38.9075H125.64Z" fill="#FCFCFC"/>
</svg>
