<svg width="32" height="32" viewBox="0 0 32 32" fill="none" xmlns="http://www.w3.org/2000/svg">
    <path d="M26.6665 16L27.0201 15.6464L27.3736 16L27.0201 16.3536L26.6665 16ZM6.6665 16.5C6.39036 16.5 6.1665 16.2761 6.1665 16C6.1665 15.7239 6.39036 15.5 6.6665 15.5V16V16.5ZM18.6665 8L19.0201 7.64645L27.0201 15.6464L26.6665 16L26.313 16.3536L18.313 8.35355L18.6665 8ZM26.6665 16L27.0201 16.3536L19.0201 24.3536L18.6665 24L18.313 23.6464L26.313 15.6464L26.6665 16ZM26.6665 16V16.5H6.6665V16V15.5H26.6665V16Z" fill="#383838"/>
</svg>
